<svg data-name="Layer 1" xmlns="http://www.w3.org/2000/svg" viewBox="0 0 101.15 122.88"><path d="M18 27.19c8.26 2.76 19.76 4.46 32.53 4.46s24.3-1.65 32.56-4.46c7.25-2.42 11.73-5.35 11.73-8.22s-4.48-5.79-11.73-8.21C74.83 8 63.33 6.29 50.56 6.29S26.29 8 18 10.76C2.65 15.89 2.22 21.91 18 27.19zm62 70.5a5 5 0 1 1-4.94 5 4.94 4.94 0 0 1 4.94-5zm0-28a4.95 4.95 0 1 1-4.94 5 4.94 4.94 0 0 1 4.94-5zm0-29.13a4.95 4.95 0 1 1-4.94 4.95A4.94 4.94 0 0 1 80 40.59zm14.8 45a39.45 39.45 0 0 1-9.76 4.62C76.18 93.18 64 95 50.56 95S24.94 93.18 16 90.21a39.87 39.87 0 0 1-9.68-4.55v18.84c.57 2.68 4.92 5.37 11.67 7.62 8.26 2.76 19.76 4.47 32.53 4.47s24.27-1.71 32.53-4.47c5-1.67 8.69-3.58 10.49-5.55 1.49-1.63 1.26-2.7 1.26-4.64V85.59zM0 19C0 13.1 6.13 8.12 16 4.81 24.94 1.84 37.15 0 50.56 0s25.62 1.84 34.52 4.81S100 12.22 101 17.41a3.11 3.11 0 0 1 .18 1.06v86.74c0 6-11.49 11.33-16.07 12.86-8.9 3-21.11 4.81-34.52 4.81S24.94 121 16 118.07c-4.69-1.56-16-6.71-16-12.86v-2Q.07 61.09 0 19zm6.36 57.64C6.93 79.32 11.28 82 18 84.26c8.26 2.76 19.76 4.47 32.53 4.47s24.3-1.73 32.56-4.47c7.25-2.42 11.73-5.35 11.73-8.21V57.73a39.79 39.79 0 0 1-9.78 4.62c-8.9 3-21.11 4.81-34.52 4.81S24.94 65.32 16 62.35a39.87 39.87 0 0 1-9.64-4.55v18.84zm0-27.86c.57 2.68 4.92 5.37 11.67 7.62 8.26 2.76 19.76 4.47 32.53 4.47s24.27-1.71 32.53-4.47c7.25-2.42 11.73-5.35 11.73-8.21V28.52a40.15 40.15 0 0 1-9.78 4.62C76.18 36.11 64 38 50.56 38S24.94 36.11 16 33.14a39.87 39.87 0 0 1-9.68-4.56v20.2z"/></svg>