<svg data-name="Layer 1" xmlns="http://www.w3.org/2000/svg" viewBox="0 0 108.81 122.88"><path d="M62.72 69.75h37.12a9 9 0 0 1 9 9v35.15a9 9 0 0 1-9 9H62.72a9 9 0 0 1-9-9V78.72a9 9 0 0 1 9-9zm-5.37-58.69 18.89 17.63H57.35V11.06zM20 66.89A2 2 0 0 0 18.06 69 2 2 0 0 0 20 71.15h23.7v-4.26zm0 15.26a2 2 0 0 0-1.92 2.13A2 2 0 0 0 20 86.41h23.7v-4.26zm0-45.79a2 2 0 0 0-2 2.13 2 2 0 0 0 2 2.13h21.89a2 2 0 0 0 1.91-2.13 2 2 0 0 0-1.91-2.13zm0-15.26a2 2 0 0 0-1.92 2.13A2 2 0 0 0 20 25.36h12a2 2 0 0 0 1.91-2.13A2 2 0 0 0 32 21.1zm0 30.53a2 2 0 0 0-2 2.13 2 2 0 0 0 2 2.13h37a2.05 2.05 0 0 0 2-2.13 2 2 0 0 0-2-2.13H20zm66.8-20.41a3.15 3.15 0 0 0-2.29-3l-27.83-27A3.09 3.09 0 0 0 54.21 0H5.66A5.63 5.63 0 0 0 0 5.65v96.78a5.63 5.63 0 0 0 1.65 4 5.71 5.71 0 0 0 4 1.65h4.81V116a7 7 0 0 0 6.92 6.92h26.36V117H17.35a1 1 0 0 1-.7-.28 1 1 0 0 1-.28-.7v-7.89h27.39v-6.31H6.32V6.29H51v25.54A3.17 3.17 0 0 0 54.21 35h26.23v25.2h6.31V42.44h7.81a1 1 0 0 1 .71.28 1 1 0 0 1 .28.7v16.79h6V43.42a6.91 6.91 0 0 0-2-4.88 6.82 6.82 0 0 0-4.88-2h-7.92v-5.32zm-7.36 76.71L67.89 111l1.66-12.34 9.84 9.28zm-7.36-12.08L84.34 82a1.06 1.06 0 0 1 .76-.36 1.17 1.17 0 0 1 .52.12l8.76 8a.9.9 0 0 1 .28.63.91.91 0 0 1-.3.71l-12.47 14.02-9.82-9.27z" style="fill-rule:evenodd"/></svg>